<svg width="40" height="40" viewBox="0 0 40 40" fill="none" xmlns="http://www.w3.org/2000/svg">
<path d="M1.99998 16.4456L3.99998 17.7739L18.8934 27.6659C19.2287 27.8885 19.6142 27.9998 20 27.9998C20.3857 27.9998 20.7713 27.8885 21.1066 27.6659L36 17.7741L38 16.4458L40 15.1173V37.9999C40 39.1044 39.1044 39.9999 38 39.9999H1.99998C0.895294 39.9999 -1.90735e-05 39.1044 -1.90735e-05 37.9999V15.1172L1.99998 16.4456Z" fill="white"/>
<path d="M18.8906 0.335918C19.5622 -0.111973 20.4374 -0.111973 21.1095 0.335918L38.0359 11.6202L36.2296 12.8198L34.4235 14.0196L20 23.5991L5.57658 14.0194L3.77032 12.8198L1.96431 11.62L18.8906 0.335918Z" fill="white"/>
</svg>
