<svg width="36" height="51" viewBox="0 0 36 51" fill="none" xmlns="http://www.w3.org/2000/svg">
<path d="M18 0C27.9251 0 36 7.95256 36 17.7274C36 30.0132 17.9823 51 17.9823 51C17.9823 51 0 29.409 0 17.7274C0 7.95256 8.07456 0 18 0ZM12.569 22.9179C14.0665 24.3925 16.0331 25.1299 18 25.1299C19.9666 25.1299 21.9338 24.3925 23.4307 22.9179C26.4254 19.9689 26.4254 15.1702 23.4307 12.2208C21.9805 10.7921 20.0516 10.0051 18 10.0051C15.9484 10.0051 14.0198 10.7924 12.569 12.2208C9.57429 15.1702 9.57429 19.9689 12.569 22.9179Z" fill="white"/>
</svg>
