<svg width="41" height="41" viewBox="0 0 41 41" fill="none" xmlns="http://www.w3.org/2000/svg">
<path d="M40.2028 32.6016L35.6575 29.5712L31.6169 26.8779C30.8371 26.3591 29.7891 26.5292 29.2134 27.2682L26.7132 30.4824C26.1761 31.1799 25.21 31.3803 24.4398 30.9539C22.7433 30.0102 20.7371 29.1216 16.3106 24.6894C11.8841 20.2572 10.9899 18.2567 10.0461 16.5602C9.61973 15.79 9.82016 14.8239 10.5176 14.2869L13.7319 11.7867C14.4707 11.2111 14.6409 10.1631 14.1221 9.38322L11.5116 5.46704L8.39839 0.797251C7.86852 0.00240398 6.80781 -0.236226 5.98862 0.255048L2.39828 2.40897C1.42798 2.98064 0.714731 3.90377 0.406273 4.98698C-0.575555 8.56667 -0.773506 16.4633 11.8819 29.1188C24.5373 41.7742 32.4333 41.5756 36.013 40.5937C37.0962 40.2853 38.0193 39.572 38.591 38.6017L40.7449 35.0114C41.2363 34.1921 40.9976 33.1315 40.2028 32.6016Z" fill="white"/>
</svg>
